<svg height="60" viewBox="0 0 178 60" width="178" xmlns="http://www.w3.org/2000/svg"><g fill="none" fill-rule="evenodd"><path d="m0 0h178v60h-178z"/><g transform="translate(0 7)"><path d="m109.035009 4.70763968c0-2.5999576 2.107683-4.70763968 4.70764-4.70763968 2.599958 0 4.70764 2.10768208 4.70764 4.70763968 0 2.5999575-2.107682 4.70763941-4.70764 4.70763941-2.599957 0-4.70764-2.10768191-4.70764-4.70763941" fill="#ea6900"/><path d="m23.3731339 35.2643809c.079231.1056412.0066026.3257272-.2178851.660258-.2748333.3811452-.6092418.7155537-.9903871.990387-.4897866.3607709-1.0219644.6601209-1.5846192.8913483-.6269015.2639035-1.3005944.3986421-1.9807741.3961887-.7820161-.0042276-1.550885-.2015479-2.2382747-.5744583-.8629175-.5134354-1.5898042-1.2267354-2.1194282-2.0798128l-6.27905378-8.6427775v7.6061724c0 2.4561599-1.14884895 3.6842398-3.44654686 3.6842398h-1.14884896c-2.24487727 0-3.3673159-1.2280799-3.3673159-3.6842398v-18.6588916c0-2.4561599 1.12243863-3.6842398 3.3673159-3.6842398h1.14884896c2.29769791 0 3.44654686 1.2280799 3.44654686 3.6842398v7.6457878l6.18001508-8.6361749c.5399365-.8636591 1.2806557-1.5839916 2.1590437-2.0996205.6692739-.3729705 1.4194671-.5769505 2.1854541-.5942322.6487479-.0079592 1.2912626.127307 1.8817353.3961548.5263529.2382775 1.0191529.5446127 1.4657728.9111561.3551276.2849487.6685054.6183293.9309638.990387.2112826.3169239.2905136.5370099.2376929.660258l-7.1571969 9.7982291zm29.1966097.5546167c.0792309.1848722.0132051.4159625-.1980774.6932709-.2596448.3220307-.566898.6025663-.9111561.8319251-.4359252.297592-.9086645.5372908-1.4063496.7130787-.55076.208946-1.1342322.3184868-1.7232734.3235401-.894312-.0156878-1.7634918-.2985161-2.4957753-.812131-.9711895-.7510563-1.6899005-1.780748-2.0600051-2.9513534l-.7130786-1.9015431h-8.2400201l-.7526942 1.9807741c-.3109575 1.1308261-.969164 2.135457-1.8817353 2.8721224-.7077908.5176973-1.559501.8016007-2.4363521.812131-.5468448.0013056-1.0897496-.0925298-1.604427-.2773221-.4806009-.1640093-.9395312-.3857147-1.3667341-.660258-.3461722-.2189431-.6539956-.4933074-.9111561-.8121173-.1727187-.1742666-.2597028-.4158892-.2376929-.6602581l8.3192511-21.5112063c.1063257-.3182707.2599017-.6187456.455578-.8913483.2297595-.3035357.5285186-.5479749.8715406-.7130786.4696333-.2252737.9703961-.378841 1.4855806-.4555781.7469248-.1159946 1.5022779-.1690019 2.2580824-.1584619.7492469-.0111653 1.498074.041849 2.2382747.1584619.4969861.0733419.9786904.2272196 1.4261573.4555781.3239894.169103.6025345.4136792.8121174.7130786.1843648.2763486.3309221.5761249.4357703.8913483zm-10.9338728-8.8342523-2.7334682-7.4477105-2.7730837 7.4477105zm34.742777-14.81619h-.660258c-2.297698 0-3.4465469 1.2280799-3.4465469 3.6842398v10.1415632l-9.2039968-11.9638754c-.2641032-.3169238-.5150013-.5942322-.7526942-.8319251-.2256008-.2281716-.4783945-.4277456-.7526941-.5942322-.269489-.1605001-.5641444-.2743442-.8715406-.3367316-.3918314-.0727827-.7899908-.1059627-1.1884644-.0990387h-.739489c-.8980879-.051466-1.7760072.2795527-2.4165444.9111561-.6433923.774639-.9606286 1.7689616-.8847457 2.7730837v18.6588916c0 2.4561599 1.1224386 3.6842398 3.3673159 3.6842398h.660258c2.2976979 0 3.4465469-1.2280799 3.4465469-3.6842398v-10.2207941l9.388869 12.1619527c.2641032.3169238.5083987.5876296.7328864.8121174.2093814.2131884.449791.3934956.7130787.534809.2747908.1402532.5683007.2403134.8715406.2971161.3986148.0719487.8032617.1051165 1.2082722.0990387h.660258c.880072.0487132 1.7386316-.2831669 2.3571211-.9111561.6243152-.7834243.9286497-1.774281.8517329-2.7730837v-18.6588916c-.0088035-2.4561599-1.1224387-3.6842398-3.3409056-3.6842398zm26.6216032 12.346825c-.854143-.6693574-1.80178-1.2099112-2.812699-1.604427-1.1419205-.4534587-2.3217999-.8047711-3.5257778-1.0498103-.6602581-.1584619-1.2809006-.2773083-1.8619277-.3565393-.5142674-.0660849-1.0237274-.1653304-1.525196-.2971161-.3630049-.0851609-.7060626-.2398733-1.0101948-.455578-.2460216-.2036077-.3787694-.5133524-.3565393-.8319251 0-1.3469264 1.148849-2.0203896 3.4465469-2.0203896 1.2627747.011021 2.5098992.2806696 3.664432.7923097 1.1439447.474313 2.1963377 1.1446268 3.1098157 1.980774.05282.0264103.224487-.0594232.515001-.2575006.344142-.2445686.662684-.5232934.950771-.8319251.365235-.386655.678221-.8195084.930964-1.2875032.27259-.4836577.415856-1.0294347.415963-1.5846192-.004499-.6483292-.197173-1.281401-.554617-1.8223121-.442409-.6640762-1.037964-1.212078-1.736479-1.5978245-.941025-.5170737-1.956762-.88461-3.0107762-1.0894257-1.4345831-.285008-2.8952427-.4177953-4.3577029-.3961548-3.5213761 0-6.228434.7592967-8.1211737 2.2778902-1.8748996 1.5153751-2.9187892 3.8310456-2.8126991 6.2394383-.0393195 1.1722534.212481 2.3359802.7328864 3.3871236.4843301.9015045 1.1604696 1.6858264 1.980774 2.2976979.8406311.6327946 1.7767296 1.1275895 2.7730837 1.4657728 1.0226884.354545 2.0683096.6391128 3.129623.8517329.6338477.1320516 1.22808.2442954 1.7826967.3367316.4956814.0787732.9854098.1912784 1.4657728.3367315.3662856.1011778.7048894.2840239.990387.534809.2458344.245495.3754972.5840591.3565394.9309639 0 1.3469263-1.1884645 2.0203895-3.5653933 2.0203895-.7140768-.0032665-1.4253438-.0896821-2.1194283-.2575006-.7162198-.1642628-1.4182921-.3850403-2.0996205-.6602581-.6515826-.2662653-1.2808327-.5842022-1.8817353-.9507715-.5313497-.320449-1.0349081-.6848662-1.5053883-1.0894257-.0528207-.0528207-.2178852.0264103-.4951936.2376929-.3234428.2550149-.6219023.5402095-.8913483.8517328-.3331025.3801649-.6190831.7991598-.8517328 1.2478877-.2409846.4371376-.3702624.9270321-.3763471 1.4261573.0060011.6826109.1903671 1.3517915.534809 1.9411586.4284789.7054108 1.0280079 1.2913142 1.7430812 1.7034657.9828601.5698756 2.0540147.9715586 3.1692385 1.1884644 1.5710204.3158191 3.1714285.4619144 4.7736655.4357703 3.8823171 0 6.7808502-.7526942 8.6955982-2.2580824 1.914748-1.5053883 2.872122-3.6578295 2.872122-6.4573235.030896-1.0680469-.195559-2.1278569-.660258-3.0900075-.466893-.8732159-1.11526-1.6363981-1.901543-2.2382747zm11.290412-12.346825h-1.148849c-2.244877 0-3.367316 1.2280799-3.367316 3.6842398v18.6588916c0 2.4561599 1.122439 3.6842398 3.367316 3.6842398h1.148849c2.297698 0 3.446547-1.2280799 3.446547-3.6842398v-18.6588916c0-2.4561599-1.148849-3.6842398-3.446547-3.6842398zm29.711611 0h-.660258c-2.297698 0-3.446547 1.2280799-3.446547 3.6842398v10.1415632l-9.203996-11.9638754c-.264104-.3169238-.515002-.5942322-.752695-.8319251-.2256-.2281716-.478394-.4277456-.752694-.5942322-.269489-.1605001-.564144-.2743442-.87154-.3367316-.391832-.0727827-.789991-.1059627-1.188465-.0990387h-.752694c-.898088-.051466-1.776007.2795527-2.416544.9111561-.638659.7766218-.951095 1.7707379-.871541 2.7730837v18.6588916c0 2.4561599 1.122439 3.6842398 3.367316 3.6842398h.660258c2.297698 0 3.446547-1.2280799 3.446547-3.6842398v-10.2207941l9.415279 12.1619527c.264103.3169238.508399.5876296.732887.8121174.209381.2131884.449791.3934956.713078.534809.274791.1402532.568301.2403134.871541.2971161.398615.0719487.803262.1051165 1.208272.0990387h.660258c.880072.0487132 1.738632-.2831669 2.357121-.9111561.624315-.7834243.92865-1.774281.851733-2.7730837v-18.6588916c-.02641-2.4561599-1.148849-3.6842398-3.367316-3.6842398zm33.996686 13.007083c.020778 1.8448529-.322504 3.6756904-1.010195 5.3877055-.63886 1.5851221-1.588469 3.0263715-2.792892 4.2388564-1.219991 1.2091102-2.676578 2.1531944-4.278471 2.7730837-1.74273.6748527-3.598219 1.0109919-5.466937.9903871-1.862413.0221513-3.711707-.314084-5.447129-.9903871-1.593878-.6241381-3.043166-1.5678603-4.258664-2.7730837-1.204423-1.2124849-2.154031-2.6537343-2.792891-4.2388564-.687691-1.7120151-1.030973-3.5428526-1.010195-5.3877055-.022523-1.8385813.320871-3.6632803 1.010195-5.3678977 1.297748-3.2092755 3.863961-5.7396475 7.091171-6.9921324 3.511399-1.3203656 7.382858-1.3203656 10.894257 0 1.593879.6241381 3.043167 1.5678603 4.258664 2.7730837 1.201131 1.2075555 2.150461 2.6416494 2.792892 4.2190487.689324 1.7046174 1.032718 3.5293164 1.010195 5.3678977zm-7.843866 0c.08651-1.6803454-.465375-3.3312841-1.545003-4.6218061-1.098993-1.10355-2.592286-1.7239024-4.149722-1.7239024s-3.050729.6203524-4.149722 1.7239024c-1.070197 1.2947162-1.6146 2.9444214-1.525196 4.6218061-.081286 1.6655757.470672 3.300221 1.545004 4.5755881 1.095603 1.1023562 2.585619 1.7222244 4.139818 1.7222244s3.044215-.6198682 4.139818-1.7222244c1.074331-1.2753671 1.626289-2.9100124 1.545003-4.5755881z" fill="#f0f4fa"/></g></g></svg>